<?xml version="1.0" encoding="UTF-8"?>
<!-- Generated by Pixelmator Pro 3.5.6 -->
<svg width="1042" height="1042" viewBox="0 0 1042 1042" xmlns="http://www.w3.org/2000/svg">
    <g id="Group-copy">
        <path id="Shape-copy-2" fill="#ffffff" fill-rule="evenodd" stroke="none" d="M 481.5 800.160156 L 481.5 254.900391 L 234.5 254.900391 L 234.5 173.900391 L 789.466797 173.900391 L 789.466797 254.900391 L 562.5 254.900391 L 562.5 800.160156 L 481.5 800.160156 Z M 337.099609 737.119141 L 337.099609 319.162109 L 418.099609 319.162109 L 418.099609 737.119141 L 337.099609 737.119141 Z M 625.914063 737.119141 L 625.914063 319.162109 L 706.914063 319.162109 L 706.914063 737.119141 L 625.914063 737.119141 Z"/>
        <path id="Shape-copy" fill="#ffffff" fill-rule="evenodd" stroke="#ffffff" stroke-width="24" d="M 638 764 L 638 658 L 680.105469 700.105469 C 677.437683 691.544006 676 682.439819 676 673 L 693.634766 673 C 693.634766 713.517822 726.482178 746.365234 767 746.365234 L 767 764 C 757.560181 764 748.455994 762.562317 739.894531 759.894531 L 744 764 L 638 764 Z M 638 658 L 638 616 L 693 616 L 693 658 L 638 658 Z"/>
        <path id="Shape-copy-8" fill="#ffffff" fill-rule="evenodd" stroke="#ffffff" stroke-width="24" d="M 853.365234 319 C 853.365234 277.22583 820.517822 243.361328 780 243.361328 L 780 225.177734 C 789.439941 225.177734 798.543884 226.661499 807.105469 229.412109 L 765 186 L 871 186 L 871 295.287109 L 866.894531 291.054688 C 869.562073 299.881287 871 309.267944 871 319 L 853.365234 319 Z M 765 186 L 765 242.705078 L 723 242.705078 L 723 186 L 765 186 Z"/>
        <path id="Shape-copy-9" fill="#ffffff" fill-rule="evenodd" stroke="#ffffff" stroke-width="24" d="M 172 319 C 172 309.267944 173.437912 299.881287 176.105469 291.054688 L 172 295.287109 L 172 186 L 278 186 L 235.894531 229.412109 C 244.456131 226.661499 253.560043 225.177734 263 225.177734 L 263 243.361328 C 222.482162 243.361328 189.634766 277.22583 189.634766 319 L 172 319 Z M 278 186 L 320 186 L 320 242.705078 L 278 242.705078 L 278 186 Z"/>
        <path id="Shape-copy-6" fill="#ffffff" fill-rule="evenodd" stroke="#ffffff" stroke-width="24" d="M 638 478 L 638 436 L 693 436 L 693 478 L 638 478 Z M 638 436 L 638 330 L 744 330 L 739.894531 334.105469 C 748.455994 331.437683 757.560181 330 767 330 L 767 347.634766 C 726.482178 347.634766 693.634766 380.482178 693.634766 421 L 676 421 C 676 411.560181 677.437683 402.455994 680.105469 393.894531 L 638 436 Z"/>
        <path id="Shape-copy-7" fill="#ffffff" fill-rule="evenodd" stroke="#ffffff" stroke-width="24" d="M 351 478 L 351 436 L 406 436 L 406 478 L 351 478 Z M 406 436 L 363.894531 393.894531 C 366.562317 402.455994 368 411.560181 368 421 L 350.365234 421 C 350.365234 380.482178 317.517853 347.634766 277 347.634766 L 277 330 C 286.439789 330 295.544006 331.437683 304.105469 334.105469 L 300 330 L 406 330 L 406 436 Z"/>
        <path id="Shape-copy-3" fill="#ffffff" fill-rule="evenodd" stroke="#ffffff" stroke-width="24" d="M 277 764 L 277 746.365234 C 317.517853 746.365234 350.365234 713.517822 350.365234 673 L 368 673 C 368 682.439819 366.562317 691.544006 363.894531 700.105469 L 406 658 L 406 764 L 300 764 L 304.105469 759.894531 C 295.544006 762.562317 286.439789 764 277 764 Z M 406 658 L 351 658 L 351 616 L 406 616 L 406 658 Z"/>
        <path id="Shape-copy-4" fill="#ffffff" fill-rule="evenodd" stroke="#ffffff" stroke-width="24" d="M 419.5 869 L 419.5 851.365234 C 460.017853 851.365234 492.865234 818.517822 492.865234 778 L 510.5 778 C 510.5 787.439819 509.062317 796.544006 506.394531 805.105469 L 548.5 763 L 548.5 869 L 442.5 869 L 446.605469 864.894531 C 438.044006 867.562317 428.939789 869 419.5 869 Z M 548.5 763 L 493.5 763 L 493.5 721 L 548.5 721 L 548.5 763 Z"/>
        <path id="Shape-copy-5" fill="#ffffff" fill-rule="evenodd" stroke="#ffffff" stroke-width="24" d="M 495.5 869 L 495.5 763 L 537.605469 805.105469 C 534.937683 796.544006 533.5 787.439819 533.5 778 L 551.134766 778 C 551.134766 818.517822 583.982178 851.365234 624.5 851.365234 L 624.5 869 C 615.060181 869 605.955994 867.562317 597.394531 864.894531 L 601.5 869 L 495.5 869 Z M 495.5 763 L 495.5 721 L 550.5 721 L 550.5 763 L 495.5 763 Z"/>
        <path id="Shape-copy-10" fill="#ffffff" fill-rule="evenodd" stroke="#ffffff" stroke-width="24" d="M 495.5 373 L 495.5 331 L 550.5 331 L 550.5 373 L 495.5 373 Z M 495.5 331 L 495.5 225 L 601.5 225 L 597.394531 229.105469 C 605.955994 226.437683 615.060181 225 624.5 225 L 624.5 242.634766 C 583.982178 242.634766 551.134766 275.482178 551.134766 316 L 533.5 316 C 533.5 306.560181 534.937683 297.455994 537.605469 288.894531 L 495.5 331 Z"/>
        <path id="Shape-copy-11" fill="#ffffff" fill-rule="evenodd" stroke="#ffffff" stroke-width="24" d="M 493.5 373 L 493.5 331 L 548.5 331 L 548.5 373 L 493.5 373 Z M 548.5 331 L 506.394531 288.894531 C 509.062317 297.455994 510.5 306.560181 510.5 316 L 492.865234 316 C 492.865234 275.482178 460.017853 242.634766 419.5 242.634766 L 419.5 225 C 428.939789 225 438.044006 226.437683 446.605469 229.105469 L 442.5 225 L 548.5 225 L 548.5 331 Z"/>
    </g>
</svg>
